<svg width="512" height="512" viewBox="0 0 512 512" xmlns="http://www.w3.org/2000/svg">
  <defs>
    <linearGradient id="shieldGradient" x1="0%" y1="0%" x2="0%" y2="100%">
      <stop offset="0%" style="stop-color:#1E293B"/>
      <stop offset="50%" style="stop-color:#0F172A"/>
      <stop offset="100%" style="stop-color:#020617"/>
    </linearGradient>
    <linearGradient id="goldGradient" x1="0%" y1="0%" x2="100%" y2="100%">
      <stop offset="0%" style="stop-color:#F59E0B"/>
      <stop offset="50%" style="stop-color:#D97706"/>
      <stop offset="100%" style="stop-color:#B45309"/>
    </linearGradient>
    <linearGradient id="cyanGlow" x1="0%" y1="0%" x2="0%" y2="100%">
      <stop offset="0%" style="stop-color:#7DD3FC"/>
      <stop offset="100%" style="stop-color:#0EA5E9"/>
    </linearGradient>
    <filter id="dropShadow" x="-20%" y="-20%" width="140%" height="140%">
      <feDropShadow dx="0" dy="4" stdDeviation="8" flood-color="#000000" flood-opacity="0.5"/>
    </filter>
  </defs>
  <g filter="url(#dropShadow)">
    <path d="M256 32 L448 96 L448 256 C448 368 256 480 256 480 C256 480 64 368 64 256 L64 96 Z"
          fill="url(#shieldGradient)"
          stroke="url(#goldGradient)"
          stroke-width="8"/>
    <path d="M256 48 L432 104 L432 256 C432 352 256 448 256 448 C256 448 80 352 80 256 L80 104 Z"
          fill="none"
          stroke="url(#cyanGlow)"
          stroke-width="2"
          stroke-opacity="0.3"/>
    <circle cx="256" cy="56" r="6" fill="url(#goldGradient)"/>
    <circle cx="120" cy="104" r="5" fill="url(#goldGradient)"/>
    <circle cx="392" cy="104" r="5" fill="url(#goldGradient)"/>
    <circle cx="88" cy="200" r="5" fill="url(#goldGradient)"/>
    <circle cx="424" cy="200" r="5" fill="url(#goldGradient)"/>
  </g>
  <g transform="translate(256, 240)">
    <ellipse cx="0" cy="90" rx="70" ry="20" fill="#000000" fill-opacity="0.3"/>
    <polygon points="0,-70 60,-35 60,35 0,70 -60,35 -60,-35"
             fill="#0F172A"
             stroke="url(#goldGradient)"
             stroke-width="4"/>
    <polygon points="0,-55 48,-27 48,27 0,55 -48,27 -48,-27"
             fill="#1E293B"
             stroke="url(#cyanGlow)"
             stroke-width="2"/>
    <text x="0" y="12"
          font-family="Georgia, 'Times New Roman', serif"
          font-size="52"
          font-weight="bold"
          fill="url(#cyanGlow)"
          text-anchor="middle"
          dominant-baseline="middle">20</text>
    <circle cx="0" cy="-70" r="6" fill="url(#goldGradient)"/>
    <circle cx="60" cy="-35" r="6" fill="url(#goldGradient)"/>
    <circle cx="60" cy="35" r="6" fill="url(#goldGradient)"/>
    <circle cx="0" cy="70" r="6" fill="url(#goldGradient)"/>
    <circle cx="-60" cy="35" r="6" fill="url(#goldGradient)"/>
    <circle cx="-60" cy="-35" r="6" fill="url(#goldGradient)"/>
  </g>
  <g opacity="0.15">
    <path d="M160 160 L140 180 L140 380 L145 385 L155 385 L160 380 L160 180 Z"
          fill="url(#goldGradient)"/>
    <path d="M352 160 L372 180 L372 380 L367 385 L357 385 L352 380 L352 180 Z"
          fill="url(#goldGradient)"/>
  </g>
  <g transform="translate(256, 430)">
    <text x="0" y="0"
          font-family="Georgia, 'Times New Roman', serif"
          font-size="28"
          font-weight="bold"
          fill="url(#goldGradient)"
          text-anchor="middle"
          letter-spacing="3">DUNGEON FORGE</text>
  </g>
  <circle cx="180" cy="180" r="3" fill="#9ADBFF" opacity="0.6"/>
  <circle cx="332" cy="180" r="3" fill="#9ADBFF" opacity="0.6"/>
</svg>
